<svg xmlns="http://www.w3.org/2000/svg" width="512" height="512" viewBox="0 0 128 128">
  <defs>
    <linearGradient id="arcG" x1="0" y1="0.8" x2="1" y2="0.2">
      <stop offset="0%" stop-color="#5ec2d4" />
      <stop offset="50%" stop-color="#6babdf" />
      <stop offset="100%" stop-color="#7bd0e8" />
    </linearGradient>
    <filter id="arcGlow" x="-20%" y="-20%" width="140%" height="140%">
      <feGaussianBlur in="SourceGraphic" stdDeviation="3" result="b" />
      <feMerge><feMergeNode in="b" /><feMergeNode in="SourceGraphic" /></feMerge>
    </filter>
    <filter id="bloom" x="-30%" y="-30%" width="160%" height="160%">
      <feGaussianBlur in="SourceGraphic" stdDeviation="5" />
    </filter>
    <radialGradient id="amb" cx="50%" cy="50%" r="30%">
      <stop offset="0%" stop-color="#6babdf" stop-opacity="0.04" />
      <stop offset="100%" stop-color="#6babdf" stop-opacity="0" />
    </radialGradient>
  </defs>

  <!-- Background -->
  <rect width="128" height="128" fill="#0e1019" />

  <!-- Ambient glow -->
  <circle cx="64" cy="64" r="44" fill="url(#amb)" />

  <!-- Faint track -->
  <circle cx="64" cy="64" r="42" fill="none" stroke="rgba(255,255,255,0.02)" stroke-width="4" />

  <!-- Arc bloom -->
  <path d="M 27.63 85.00 A 42 42 0 1 1 106.00 64.00"
        fill="none" stroke="#6babdf" stroke-width="8" stroke-linecap="round"
        opacity="0.12" filter="url(#bloom)" />

  <!-- Main arc -->
  <path d="M 27.63 85.00 A 42 42 0 1 1 106.00 64.00"
        fill="none" stroke="url(#arcG)" stroke-width="4.2" stroke-linecap="round"
        filter="url(#arcGlow)" />

  <!-- Arc endpoint glow -->
  <circle cx="27.63" cy="85.00" r="2.5" fill="#5ec2d4" opacity="0.2" />
  <circle cx="106.00" cy="64.00" r="2.5" fill="#7bd0e8" opacity="0.2" />

  <!-- A monogram -->
  <text x="64" y="72" text-anchor="middle"
        fill="rgba(255,255,255,0.95)" font-size="33" font-weight="800"
        font-family="Inter, system-ui, sans-serif" letter-spacing="-0.5">A</text>

  <!-- Run (forward arrow) at ~4 o'clock -->
  <g transform="translate(100.4, 85.0) scale(0.8)">
    <path d="M-3.5 0h7" fill="none" stroke="#6babdf" stroke-width="1.9" stroke-linecap="round" />
    <path d="M1.8 -2.6l3.2 2.6-3.2 2.6" fill="none" stroke="#6babdf" stroke-width="1.7" stroke-linecap="round" stroke-linejoin="round" />
  </g>

  <!-- Strength (power stack) at ~5 o'clock -->
  <g transform="translate(85.0, 100.4) scale(0.8)">
    <path d="M-4 2.5l4-3 4 2.5" fill="none" stroke="#ab9ed4" stroke-width="1.7" stroke-linecap="round" stroke-linejoin="round" />
    <path d="M-4 -0.2l4-3 4 2.5" fill="none" stroke="#ab9ed4" stroke-width="1.5" stroke-linecap="round" stroke-linejoin="round" opacity="0.5" />
    <path d="M-4 -2.8l4-3 4 2.5" fill="none" stroke="#ab9ed4" stroke-width="1.3" stroke-linecap="round" stroke-linejoin="round" opacity="0.25" />
  </g>

  <!-- Recovery (battery) at 6 o'clock -->
  <g transform="translate(64.0, 106.0) scale(0.8)">
    <rect x="-5.2" y="-3.2" width="9" height="6.4" rx="1.4" fill="none" stroke="#6bcf9a" stroke-width="1.4" />
    <path d="M3.8 -1.2h1.2a0.7 0.7 0 0 1 0.7 0.7v1a0.7 0.7 0 0 1-0.7 0.7H3.8" fill="none" stroke="#6bcf9a" stroke-width="1.2" />
    <line x1="-2.2" y1="-1.4" x2="-2.2" y2="1.4" stroke="#6bcf9a" stroke-width="1.6" stroke-linecap="round" />
    <line x1="0.2" y1="-1.4" x2="0.2" y2="1.4" stroke="#6bcf9a" stroke-width="1.3" stroke-linecap="round" opacity="0.4" />
  </g>

  <!-- Body (person) at ~7 o'clock -->
  <g transform="translate(43.0, 100.4) scale(0.8)">
    <circle cx="0" cy="-3" r="2.3" fill="none" stroke="#e0b45e" stroke-width="1.5" />
    <path d="M-4.2 4.5v-0.8a4.2 4.2 0 0 1 8.4 0v0.8" fill="none" stroke="#e0b45e" stroke-width="1.5" stroke-linecap="round" />
  </g>

</svg>